<svg xmlns="http://www.w3.org/2000/svg" xmlns:xlink="http://www.w3.org/1999/xlink" width="100" zoomAndPan="magnify" viewBox="0 0 75 74.999997" height="100" preserveAspectRatio="xMidYMid meet" version="1.0"><path fill="#000000" d="M 50.320312 16.84375 C 46.871094 17.117188 43.976562 18.359375 41.824219 20.496094 C 39.605469 22.695312 38.546875 25.378906 38.546875 28.78125 C 38.546875 33.871094 40.636719 37.433594 45.300781 40.25 C 46.484375 40.964844 48.101562 41.738281 50.894531 42.945312 C 54.699219 44.578125 56.113281 45.351562 57.015625 46.320312 C 58.128906 47.515625 58.441406 49.421875 57.738281 50.882812 C 57.601562 51.164062 57.246094 51.640625 56.925781 51.960938 C 55.847656 53.046875 54.152344 53.621094 52.042969 53.621094 C 48.484375 53.621094 45.828125 52.160156 43.695312 49.003906 C 43.402344 48.582031 43.136719 48.238281 43.101562 48.238281 C 43.019531 48.238281 36.074219 52.242188 35.929688 52.378906 C 35.835938 52.460938 35.910156 52.652344 36.265625 53.238281 C 39.039062 57.910156 43.375 60.648438 49.234375 61.433594 C 50.765625 61.640625 53.640625 61.632812 55.109375 61.433594 C 58.796875 60.910156 61.5625 59.6875 63.707031 57.609375 C 65.988281 55.410156 67.109375 52.5625 67.109375 48.992188 C 67.109375 46.710938 66.734375 44.933594 65.886719 43.171875 C 65.304688 41.96875 64.71875 41.15625 63.714844 40.132812 C 61.789062 38.179688 59.296875 36.703125 54.324219 34.566406 C 50.566406 32.953125 49.304688 32.257812 48.476562 31.371094 C 47.679688 30.523438 47.34375 29.527344 47.417969 28.289062 C 47.480469 27.300781 47.753906 26.636719 48.355469 25.988281 C 49.222656 25.046875 50.226562 24.65625 51.777344 24.664062 C 53.539062 24.664062 54.679688 25.121094 55.839844 26.289062 C 56.25 26.691406 56.78125 27.339844 57.027344 27.730469 C 57.308594 28.179688 57.519531 28.425781 57.589844 28.398438 C 57.828125 28.296875 64.464844 24.007812 64.464844 23.945312 C 64.464844 23.90625 64.125 23.378906 63.714844 22.757812 C 62.839844 21.445312 61.261719 19.800781 60.175781 19.082031 C 58.167969 17.75 56.023438 17.0625 53.191406 16.855469 C 51.804688 16.746094 51.625 16.746094 50.320312 16.84375 Z M 50.320312 16.84375 " fill-opacity="1" fill-rule="nonzero"/><path fill="#000000" d="M 21.910156 33.425781 L 21.882812 49.558594 L 21.683594 50.316406 C 21.417969 51.3125 21.109375 51.90625 20.5625 52.453125 C 19.792969 53.21875 18.808594 53.539062 17.164062 53.546875 C 14.820312 53.554688 13.414062 52.5625 11.78125 49.769531 C 11.515625 49.332031 11.28125 48.976562 11.253906 48.984375 C 11.214844 49.003906 9.5625 49.996094 7.585938 51.191406 L 3.980469 53.382812 L 4.253906 53.929688 C 5.886719 57.1875 8.714844 59.652344 12.121094 60.785156 C 15.714844 61.980469 20.332031 61.871094 23.71875 60.511719 C 27.777344 58.867188 30.160156 55.472656 30.789062 50.425781 C 30.84375 49.914062 30.882812 44.210938 30.882812 33.480469 L 30.882812 17.300781 L 21.949219 17.300781 Z M 21.910156 33.425781 " fill-opacity="1" fill-rule="nonzero"/></svg>